<?xml version="1.0" encoding="UTF-8" standalone="no"?>
<!-- Created with Inkscape (http://www.inkscape.org/) -->

<svg
   xmlns:dc="http://purl.org/dc/elements/1.1/"
   xmlns:cc="http://creativecommons.org/ns#"
   xmlns:rdf="http://www.w3.org/1999/02/22-rdf-syntax-ns#"
   xmlns:svg="http://www.w3.org/2000/svg"
   xmlns="http://www.w3.org/2000/svg"
   xmlns:sodipodi="http://sodipodi.sourceforge.net/DTD/sodipodi-0.dtd"
   xmlns:inkscape="http://www.inkscape.org/namespaces/inkscape"
   id="svg2"
   version="1.1"
   inkscape:version="0.48.3.1 r9886"
   width="500"
   height="500"
   sodipodi:docname="Student_Version.svg">
  <metadata
     id="metadata8">
    <rdf:RDF>
      <cc:Work
         rdf:about="">
        <dc:format>image/svg+xml</dc:format>
        <dc:type
           rdf:resource="http://purl.org/dc/dcmitype/StillImage" />
        <dc:title />
      </cc:Work>
    </rdf:RDF>
  </metadata>
  <defs
     id="defs6" />
  <sodipodi:namedview
     pagecolor="#ffffff"
     bordercolor="#666666"
     borderopacity="1"
     objecttolerance="10"
     gridtolerance="10"
     guidetolerance="10"
     inkscape:pageopacity="0"
     inkscape:pageshadow="2"
     inkscape:window-width="1600"
     inkscape:window-height="850"
     id="namedview4"
     showgrid="false"
     inkscape:zoom="1.0442478"
     inkscape:cx="-86.470631"
     inkscape:cy="253.5359"
     inkscape:window-x="0"
     inkscape:window-y="0"
     inkscape:window-maximized="1"
     inkscape:current-layer="svg2"
     fit-margin-top="0"
     fit-margin-left="0"
     fit-margin-right="0"
     fit-margin-bottom="0" />
  <g
     id="g3003"
     transform="matrix(3.6959471,0,0,4.1693439,0.239403,291.53282)">
    <path
       transform="translate(-313.62287,-100.82628)"
       d="m 448.16949,90.974579 c 0,33.055181 -30.11929,59.851691 -67.27331,59.851691 -37.15402,0 -67.27331,-26.79651 -67.27331,-59.851691 0,-33.055179 30.11929,-59.851696 67.27331,-59.851696 37.15402,0 67.27331,26.796517 67.27331,59.851696 z"
       sodipodi:ry="59.851696"
       sodipodi:rx="67.273308"
       sodipodi:cy="90.974579"
       sodipodi:cx="380.89618"
       id="path3851"
       style="fill:#2d7100;fill-opacity:1;stroke:none"
       sodipodi:type="arc" />
    <path
       sodipodi:nodetypes="ccccccccccc"
       inkscape:connector-curvature="0"
       id="path3811"
       d="m 21.943287,-31.952227 c 3.30617,2.621545 5.47258,6.558202 12.68856,4.668432 -0.55343,4.968674 0.30335,8.610098 5.14724,8.498941 l 1.67585,6.70339 53.62712,-1.436441 c 18.849083,10.579395 11.885893,21.424893 0.1197,32.319913 -1.41208,2.37324 -3.4196,4.86556 -3.35169,6.9428 -1.95925,4.34594 -39.65122,2.31414 -44.29026,0 -5.71834,-5.7992 -4.45894,-16.37942 -6.10487,-19.39195 -16.52642,-0.70575 -17.8237,-13.348942 -20.94809,-20.588983 -1.77883,-19.225476 0.18405,-16.374856 1.43644,-17.716102 z"
       style="fill:#000000;fill-opacity:0.54471549;stroke:none" />
    <path
       inkscape:connector-curvature="0"
       id="path3807"
       d="m 43.489897,-11.722354 c 0.0798,0.159604 0.39901,0.399011 0.2394,0.478813 -0.1596,0.0798 -0.41785,-0.478813 -0.2394,-0.478813 0.1596,0.159604 0.31921,0.319209 0.47881,0.478813 0,0.0399 -0.0282,0.09149 0,0.119704 0.0564,0.05643 0.18298,-0.05643 0.23941,0 0.0282,0.02821 -0.0282,0.09149 0,0.119703 0.0564,0.05643 0.18298,-0.05643 0.2394,0 0.0282,0.02822 -0.0282,0.09149 0,0.119704 0.0282,0.02821 0.084,-0.01784 0.11971,0 0.0505,0.02524 0.0692,0.09447 0.1197,0.119703 0.0357,0.01784 0.0915,-0.02821 0.1197,0 0.0282,0.02821 -0.0282,0.09149 0,0.119703 0.0282,0.02822 0.084,-0.01784 0.11971,0 0.0505,0.02524 0.0692,0.09447 0.1197,0.119704 0.0714,0.03569 0.18298,-0.05643 0.23941,0 0.0282,0.02821 -0.0282,0.09149 0,0.119703 0.0564,0.05643 0.18298,-0.05643 0.2394,0 0.0282,0.02822 -0.0282,0.09149 0,0.119704 0.0282,0.02821 0.084,-0.01784 0.11971,0 0.0505,0.02523 0.0692,0.09447 0.1197,0.119703 0.0357,0.01784 0.0915,-0.02821 0.1197,0 0.0282,0.02821 -0.0282,0.09149 0,0.119703 0.0282,0.02822 0.0915,-0.02821 0.11971,0 0.0282,0.02822 -0.0282,0.09149 0,0.119704 0.0282,0.02821 0.084,-0.01784 0.1197,0 0.0505,0.02523 0.0692,0.09447 0.1197,0.119703 0.0357,0.01784 0.0915,-0.02821 0.11971,0 0.24767,0.247671 -0.37848,-0.0097 0.1197,0.239407 0.0357,0.01784 0.084,-0.01784 0.1197,0 0.14365,0.07182 0.21547,0.287288 0.35912,0.35911 0.0357,0.01784 0.0915,-0.02821 0.1197,0 0.0282,0.02821 -0.0282,0.09149 0,0.119703 0.0282,0.02822 0.0915,-0.02821 0.1197,0 0.0282,0.02822 -0.0282,0.09149 0,0.119704 0.0282,0.02821 0.0915,-0.02822 0.11971,0 0.0282,0.02821 -0.0178,0.08401 0,0.119703 0.24908,0.498177 -0.008,-0.127967 0.2394,0.119704 0.0282,0.02821 -0.0178,0.08401 0,0.119703 0.0159,0.03178 0.32733,0.343219 0.35911,0.35911 0.0357,0.01784 0.0915,-0.02821 0.11971,0 0.24767,0.247671 -0.37848,-0.0097 0.1197,0.239407 0.0357,0.01784 0.0915,-0.02821 0.1197,0 0.0282,0.02821 -0.0282,0.09149 0,0.119703 0.0282,0.02821 0.084,-0.01784 0.11971,0 0.10094,0.05047 0.13846,0.188936 0.2394,0.239407 0.0357,0.01784 0.084,-0.01784 0.11971,0 0.10094,0.05047 0.13846,0.188936 0.2394,0.239407 0.0357,0.01784 0.084,-0.01784 0.11971,0 0.10094,0.05047 0.13846,0.188935 0.2394,0.239407 0.0357,0.01784 0.084,-0.01785 0.11971,0 0.0505,0.02523 0.0692,0.09447 0.1197,0.119703 0.0357,0.01784 0.0915,-0.02821 0.1197,0 0.0282,0.02821 -0.0282,0.09149 0,0.119703 0.0282,0.02821 0.084,-0.01784 0.11971,0 0.10094,0.05047 0.13846,0.188936 0.2394,0.239407 0.0357,0.01784 0.0915,-0.02821 0.11971,0 0.0282,0.02821 -0.0282,0.09149 0,0.119704 0.0282,0.02821 0.084,-0.01785 0.1197,0 0.0505,0.02523 0.0692,0.09447 0.1197,0.119703 0.0357,0.01784 0.0915,-0.02821 0.11971,0 0.0282,0.02821 -0.0282,0.09149 0,0.119703 0.0282,0.02822 0.0915,-0.02821 0.1197,0 0.0282,0.02822 -0.0282,0.09149 0,0.119704 0.0282,0.02821 0.0915,-0.02822 0.1197,0 0.0282,0.02821 -0.0282,0.09149 0,0.119703 0.0282,0.02822 0.0915,-0.02821 0.11971,0 0.0282,0.02822 -0.0282,0.09149 0,0.119704 0.0282,0.02821 0.0915,-0.02822 0.1197,0 0.0282,0.02821 -0.0282,0.09149 0,0.119703 0.0282,0.02821 0.0915,-0.02821 0.1197,0 0.0282,0.02821 -0.0282,0.09149 0,0.119703 0.0282,0.02822 0.0915,-0.02821 0.11971,0 0.0282,0.02822 -0.0282,0.09149 0,0.119704 0.0282,0.02821 0.0915,-0.02821 0.1197,0 0.0282,0.02821 -0.0282,0.09149 0,0.119703 0.0564,0.05643 0.18298,-0.05643 0.23941,0 0.24767,0.247671 -0.37848,-0.0097 0.1197,0.239407 0.0357,0.01784 0.084,-0.01784 0.1197,0 0.0505,0.02524 0.0798,0.0798 0.11971,0.119703 0.0941,0.09406 0.52227,0.560393 0.59851,0.598517 0.0357,0.01785 0.084,-0.01784 0.11971,0 0.14364,0.07182 0.21546,0.287288 0.35911,0.35911 0.0357,0.01785 0.0915,-0.02821 0.1197,0 0.0282,0.02822 -0.0282,0.09149 0,0.119704 0.0282,0.02821 0.084,-0.01784 0.1197,0 0.0505,0.02524 0.0692,0.09447 0.11971,0.119703 0.0357,0.01785 0.084,-0.01784 0.1197,0 0.10094,0.05047 0.13847,0.188936 0.23941,0.239407 0.0357,0.01784 0.084,-0.01784 0.1197,0 0.14365,0.07182 0.21547,0.287288 0.35911,0.35911 0.0357,0.01784 0.0915,-0.02821 0.11971,0 0.0282,0.02822 -0.0282,0.09149 0,0.119704 0.0282,0.02821 0.084,-0.01784 0.1197,0 0.0319,0.01593 0.20755,0.223477 0.23941,0.239406 0.0357,0.01784 0.0798,0 0.1197,0 0.0399,0.0399 0.0692,0.09447 0.1197,0.119704 0.0357,0.01784 0.0915,-0.02822 0.11971,0 0.0282,0.02821 -0.0282,0.09149 0,0.119703 0.0282,0.02821 0.084,-0.01784 0.1197,0 0.11779,0.0589 0.36102,0.419918 0.47881,0.478814 0.0357,0.01784 0.0915,-0.02822 0.11971,0 0.0282,0.02821 -0.0282,0.09149 0,0.119703 0.0282,0.02821 0.084,-0.01784 0.1197,0 0.0505,0.02524 0.0692,0.09447 0.1197,0.119703 0.0357,0.01784 0.0915,-0.02821 0.11971,0 0.0282,0.02822 -0.0179,0.08401 0,0.119704 0.13233,0.264671 0.0743,0.03715 0.2394,0.119703 0.10095,0.05047 0.13847,0.188936 0.23941,0.239407 0.0714,0.03569 0.16803,-0.03569 0.23941,0 0.49817,0.249088 -0.12797,-0.0083 0.1197,0.239407 0.0282,0.02821 0.0915,-0.02822 0.1197,0 0.0282,0.02821 -0.0282,0.09149 0,0.119703 0.0282,0.02822 0.084,-0.01784 0.11971,0 0.14364,0.07182 0.21546,0.28728797 0.35911,0.35910997 0.0357,0.01784 0.0915,-0.02821 0.1197,0 0.0282,0.02821 -0.0282,0.09149 0,0.119704 0.0282,0.02821 0.0915,-0.02822 0.1197,0 0.0282,0.02821 -0.0282,0.09149 0,0.1197 0.0564,0.0564 0.18298,-0.0564 0.23941,0 0.0282,0.0282 -0.0282,0.0915 0,0.11971 0.0282,0.0282 0.0915,-0.0282 0.1197,0 0.0282,0.0282 -0.0282,0.0915 0,0.1197 0.0564,0.0564 0.18298,-0.0564 0.23941,0 0.0282,0.0282 -0.0282,0.0915 0,0.1197 0.0282,0.0282 0.0915,-0.0282 0.1197,0 0.0282,0.0282 -0.0282,0.0915 0,0.11971 0.0282,0.0282 0.084,-0.0178 0.11971,0 0.0505,0.0252 0.0692,0.0945 0.1197,0.1197 0.0357,0.0178 0.0915,-0.0282 0.1197,0 0.0282,0.0282 -0.0282,0.0915 0,0.1197 0.0282,0.0282 0.0915,-0.0282 0.11971,0 0.0282,0.0282 -0.0282,0.0915 0,0.11971 0.0599,0.0598 0.29926,-0.0598 0.35911,0 0.0282,0.0282 -0.0282,0.0915 0,0.1197 0.004,0.004 0.33008,0 0.35911,0 0.59851,0 1.19703,0 1.79555,0 0.31921,0 0.63842,0 0.95763,0 0.0798,0 0.1596,0 0.2394,0 0.0399,0 0.11971,-0.0399 0.11971,0 0,0.0399 -0.11971,0.0399 -0.11971,0 0,-0.0564 0.0692,-0.0945 0.11971,-0.1197 0.031,-0.0155 0.63337,0 0.71822,0 0.0399,0 0.0915,-0.0282 0.1197,0 0.0282,0.0282 -0.0178,0.084 0,0.1197 0.0252,0.0505 0.0945,0.0692 0.1197,0.1197 0.0357,0.0714 -0.0564,0.18298 0,0.23941 0.0282,0.0282 0.0915,-0.0282 0.11971,0 0.0282,0.0282 -0.0282,0.0915 0,0.1197 0.0282,0.0282 0.0915,-0.0282 0.1197,0 0.0282,0.0282 -0.0282,0.0915 0,0.11971 0.0282,0.0282 0.0915,-0.0282 0.1197,0 0.0282,0.0282 -0.0178,0.084 0,0.11970003 0.0252,0.0505 0.0945,0.0692 0.11971,0.1197 0.0178,0.0357 -0.0282,0.0915 0,0.11971 0.0282,0.0282 0.0915,-0.0282 0.1197,0 0.0282,0.0282 -0.0282,0.0915 0,0.1197 0.0282,0.0282 0.0915,-0.0282 0.1197,0 0.0564,0.0564 -0.0564,0.18298 0,0.23941 0.0282,0.0282 0.0915,-0.0282 0.11971,0 0.0282,0.0282 -0.0282,0.0915 0,0.1197 0.0282,0.0282 0.0915,-0.0282 0.1197,0 0.0564,0.0564 -0.0564,0.18298 0,0.23941 0.0564,0.0564 0.18298,-0.0564 0.23941,0 0.0282,0.0282 -0.0282,0.0915 0,0.1197 0.0564,0.0564 0.16803,-0.0357 0.2394,0 0.0505,0.0252 0.0692,0.0945 0.11971,0.1197 0.0433,0.0217 0.51526,0 0.59851,0 0.39902,0 0.79803,0 1.19704,0 1.07733,0 2.15466,0 3.23199,0 0.31921,0 0.63842,0 0.95763,0 0.0539,0 0.32268,0.0182 0.35911,0 0.0505,-0.0252 0.0692,-0.0945 0.1197,-0.1197 0.0364,-0.0182 0.3052,0 0.35911,0 0.23941,0 0.47881,0 0.71822,0 0.51872,0 1.03743,0 1.55614,0 0.55862,0 1.11724,0 1.67585,0 0.0399,0 0.0798,0 0.11971,0 0.0399,0 0.0915,0.0282 0.1197,0 0.0282,-0.0282 -0.0282,-0.0915 0,-0.1197 0.0282,-0.0282 0.0915,0.0282 0.1197,0 0.0564,-0.0564 -0.0357,-0.16803 0,-0.23941 0.0505,-0.10094 0.18894,-0.13846 0.23941,-0.23941 0.0178,-0.0357 -0.0179,-0.084 0,-0.1197 0.0505,-0.10094 0.1768,-0.1455 0.23941,-0.23941 0.0495,-0.0742 0.0566,-0.17631 0.1197,-0.23940003 0.0282,-0.0282 0.10186,0.0357 0.1197,0 0.0357,-0.0714 -0.0357,-0.16803 0,-0.23941 0.0178,-0.0357 0.084,0.0178 0.11971,0 0.0505,-0.0252 0.0798,-0.0798 0.1197,-0.1197 0.0399,-0.0399 0.0945,-0.0692 0.1197,-0.11971 0.0179,-0.0357 -0.0282,-0.0915 0,-0.1197 0.0564,-0.0564 0.18298,0.0564 0.23941,0 0.0282,-0.0282 -0.0282,-0.0915 0,-0.1197 0.0282,-0.0282 0.0915,0.0282 0.1197,0 0.0564,-0.0564 -0.0564,-0.18298 0,-0.23941 0.0282,-0.0282 0.0915,0.0282 0.11971,0 0.0282,-0.0282 -0.0282,-0.0915 0,-0.1197 0.0282,-0.0282 0.0915,0.0282 0.1197,0 0.0282,-0.0282 -0.0282,-0.0915 0,-0.11971 0.0282,-0.0282 0.0798,0 0.1197,0 0.0399,0 0.0798,0 0.11971,0 0.75812,0 1.51624,0 2.27436,0 0.27931,0 0.55862,0 0.83792,0 0.0399,0 0.0798,0 0.11971,0 0.0399,0 0.1197,-0.0399 0.1197,0 0,0.0399 -0.15539,0.0178 -0.1197,0 0.11286,-0.0564 0.25091,-0.0548 0.35911,-0.1197 0.0968,-0.0581 0.14912,-0.17169 0.23941,-0.23941 0.0714,-0.0535 0.16802,-0.0662 0.2394,-0.1197 0.18057,-0.135429 0.30256,-0.33781097 0.47882,-0.47881397 0.32067,-0.25654 0.71277,-0.416237 1.07733,-0.598517 0.0798,-0.0399 0.16517,-0.07021 0.2394,-0.119703 0.0469,-0.0313 0.0727,-0.0884 0.11971,-0.119704 0.0742,-0.04949 0.17631,-0.05661 0.2394,-0.119703 0.0282,-0.02821 -0.0357,-0.101859 0,-0.119703 0.0714,-0.03569 0.16803,0.03569 0.23941,0 0.0357,-0.01784 -0.0282,-0.09149 0,-0.119704 0.0282,-0.02821 0.0915,0.02822 0.1197,0 0.0282,-0.02821 -0.0282,-0.09149 0,-0.119703 0.0282,-0.02821 0.0915,0.02821 0.11971,0 0.0282,-0.02821 -0.0282,-0.09149 0,-0.119703 0.0282,-0.02822 0.0915,0.02821 0.1197,0 0.0282,-0.02822 -0.0282,-0.09149 0,-0.119704 0.0282,-0.02821 0.0915,0.02821 0.1197,0 0.0282,-0.02821 -0.0282,-0.09149 0,-0.119703 0.0282,-0.02822 0.0915,0.02821 0.11971,0 0.0282,-0.02822 -0.0282,-0.09149 0,-0.119704 0.0282,-0.02821 0.084,0.01784 0.1197,0 0.0505,-0.02523 0.0798,-0.0798 0.1197,-0.119703 0.0399,-0.0399 0.0798,-0.0798 0.11971,-0.119703 0.0399,-0.0399 0.0798,-0.0798 0.1197,-0.119704 0.0399,-0.0399 0.0662,-0.101859 0.1197,-0.119703 0.0757,-0.02524 0.1637,0.02523 0.23941,0 0.0535,-0.01784 0.0728,-0.0884 0.1197,-0.119704 0.0742,-0.04949 0.16517,-0.07021 0.23941,-0.119703 0.0469,-0.0313 0.0727,-0.0884 0.1197,-0.119703 0.0742,-0.04949 0.16517,-0.07021 0.23941,-0.119704 0.0469,-0.0313 0.0727,-0.0884 0.1197,-0.119703 0.0742,-0.04949 0.16517,-0.07021 0.23941,-0.119704 0.275,-0.183335 -0.0513,-0.06837 0.23941,-0.35911 0.0631,-0.06309 0.16517,-0.07021 0.2394,-0.119703 0.0554,-0.03692 0.18403,-0.202487 0.23941,-0.239407 0.0742,-0.04949 0.16517,-0.07021 0.23941,-0.119703 0.0469,-0.0313 0.0692,-0.09447 0.1197,-0.119704 0.0357,-0.01784 0.084,0.01785 0.1197,0 0.49818,-0.249088 -0.12796,0.0083 0.11971,-0.239406 0.0282,-0.02821 0.084,0.01784 0.1197,0 0.10094,-0.05047 0.13847,-0.188936 0.23941,-0.239407 0.0357,-0.01784 0.0915,0.02821 0.1197,0 0.0282,-0.02821 -0.0178,-0.08401 0,-0.119704 0.0505,-0.100942 0.18894,-0.138464 0.23941,-0.239406 0.0178,-0.03569 -0.0282,-0.09149 0,-0.119704 0.0282,-0.02821 0.084,0.01785 0.1197,0 0.0505,-0.02523 0.0798,-0.0798 0.11971,-0.119703 0.0399,-0.0399 0.0884,-0.07275 0.1197,-0.119704 0.0495,-0.07424 0.0566,-0.176317 0.1197,-0.239406 0.0282,-0.02822 0.0915,0.02821 0.11971,0 0.0631,-0.06309 0.0566,-0.176318 0.1197,-0.239407 0.0282,-0.02821 0.084,0.01784 0.1197,0 0.0505,-0.02524 0.0798,-0.0798 0.11971,-0.119704 0.0399,-0.0399 0.0945,-0.06923 0.1197,-0.119703 0.0178,-0.03569 -0.0178,-0.08402 0,-0.119703 0.0159,-0.03178 0.32733,-0.343219 0.35911,-0.35911 0.16511,-0.08256 0.10707,0.144967 0.23941,-0.119704 0.0826,-0.165114 -0.14497,-0.107071 0.1197,-0.239407 0.16511,-0.08256 0.10707,0.144968 0.23941,-0.119703 0.0178,-0.03569 -0.0179,-0.08402 0,-0.119703 0.13233,-0.264671 0.0743,-0.03715 0.2394,-0.119704 0.1061,-0.05305 0.25015,-0.286465 0.35911,-0.35911 0.0742,-0.04949 0.16517,-0.07021 0.23941,-0.119703 0.0469,-0.0313 0.0798,-0.0798 0.1197,-0.119704 0.0399,-0.0399 0.0945,-0.06923 0.11971,-0.119703 0.0178,-0.03569 -0.0282,-0.09149 0,-0.119704 0.0282,-0.02821 0.084,0.01784 0.1197,0 0.10094,-0.05047 0.13846,-0.188935 0.23941,-0.239406 0.0357,-0.01784 0.084,0.01784 0.1197,0 0.26467,-0.132336 0.0371,-0.07429 0.1197,-0.239407 0.13234,-0.264671 0.0743,-0.03715 0.23941,-0.119703 0.0229,-0.01146 0.46736,-0.4559 0.47881,-0.478814 0.0179,-0.03569 -0.0282,-0.09149 0,-0.119703 0.0282,-0.02822 0.084,0.01784 0.11971,0 0.0639,-0.03197 0.29609,-0.296091 0.35911,-0.359111 0.0399,-0.0399 0.0692,-0.09447 0.1197,-0.119703 0.0357,-0.01784 0.0915,0.02821 0.1197,0 0.0282,-0.02821 -0.0178,-0.08401 0,-0.119703 0.0505,-0.100943 0.18894,-0.138464 0.23941,-0.239407 0.0179,-0.03569 0,-0.0798 0,-0.119704 0,-0.0399 0,-0.0798 0,-0.119703 0,-0.305023 0.13963,-0.159547 0.23941,-0.35911 0.0178,-0.03569 -0.0179,-0.08401 0,-0.119704 0.0252,-0.05047 0.0945,-0.06923 0.1197,-0.119703 0.0179,-0.03569 -0.0178,-0.08401 0,-0.119703 0.0252,-0.05047 0.0945,-0.06923 0.1197,-0.119704 0.0179,-0.03569 -0.0282,-0.09149 0,-0.119703 0.0282,-0.02821 0.0915,0.02821 0.11971,0 0.0282,-0.02821 -0.0282,-0.09149 0,-0.119703 0.0282,-0.02821 0.0915,0.02821 0.1197,0 0.0564,-0.05643 -0.0564,-0.182979 0,-0.239407 0.0282,-0.02821 0.0915,0.02821 0.1197,0 0.0282,-0.02821 -0.0178,-0.08401 0,-0.119704 0.0159,-0.03186 0.22348,-0.207549 0.23941,-0.239406 0.0179,-0.03569 0,-0.0798 0,-0.119704 0.0399,-0.0399 0.0945,-0.06923 0.1197,-0.119703 0.0178,-0.03569 -0.0282,-0.09149 0,-0.119704 0.0282,-0.02821 0.0915,0.02822 0.11971,0 0.004,-0.0038 0,-0.330078 0,-0.35911 0,-0.0399 0.0282,-0.09149 0,-0.119703 -0.21347,-0.213469 -0.32863,-0.06573 -0.59852,-0.119704 -0.0875,-0.0175 -0.15476,-0.09149 -0.23941,-0.119703 -1.30258,-0.434196 0.20059,0.088 -0.83792,-0.119703 -0.0875,-0.0175 -0.15192,-0.102206 -0.23941,-0.119704 -0.19563,-0.03913 -0.40496,0.04839 -0.59851,0 -0.0866,-0.02164 -0.15285,-0.09806 -0.23941,-0.119703 -0.20783,-0.05196 -0.51039,0.05196 -0.71822,0 -0.0866,-0.02164 -0.15285,-0.09806 -0.23941,-0.119703 -0.0942,-0.02354 -0.59373,0 -0.71822,0 -0.55861,0 -1.11723,0 -1.67584,0 -0.47882,0 -0.95763,0 -1.43645,0 -0.12448,0 -0.62405,-0.02354 -0.71822,0 -0.0865,0.02164 -0.15476,0.09149 -0.2394,0.119703 -0.0379,0.01262 -0.0798,0 -0.11971,0 -0.0798,0 -0.1596,0 -0.2394,0 -0.19951,0 -0.39901,0 -0.59852,0 -0.0399,0 -0.0798,0 -0.1197,0 -0.0399,0 -0.084,-0.01784 -0.11971,0 -0.0505,0.02524 -0.0692,0.09447 -0.1197,0.119703 -0.0357,0.01784 -0.0798,0 -0.1197,0 -0.0399,0 -0.0798,0 -0.11971,0 -0.1995,0 -0.40101,-0.02821 -0.59851,0 -0.93306,0.133294 1.6e-4,0.131657 -1.07733,0.239407 -0.43674,0.04367 -0.87963,-0.03974 -1.31674,0 -0.20262,0.01842 -0.39607,0.09946 -0.59852,0.119703 -0.35733,0.03573 -0.72099,-0.04454 -1.07733,0 -0.16324,0.02041 -0.31557,0.0993 -0.47881,0.119704 -0.15837,0.0198 -0.31921,0 -0.47882,0 -0.1596,0 -0.3192,0 -0.47881,0 -0.1197,0 -0.24061,-0.01693 -0.35911,0 -0.16286,0.02327 -0.31653,0.09266 -0.47881,0.119703 -0.0787,0.01312 -0.15961,0 -0.23941,0 -0.35911,0 -0.71822,0 -1.07733,0 -0.1596,0 -0.32081,-0.02257 -0.47881,0 -0.12491,0.01784 -0.2342,0.101859 -0.35911,0.119704 -0.158,0.02257 -0.31921,0 -0.47882,0 -0.31921,0 -0.63842,0 -0.95762,0 -0.15961,0 -0.32045,-0.0198 -0.47882,0 -0.16324,0.0204 -0.31595,0.09644 -0.47881,0.119703 -0.1185,0.01693 -0.23941,0 -0.35911,0 -0.11971,0 -0.23941,0 -0.35911,0 -0.31921,0 -0.63842,0 -0.95763,0 -0.0798,0 -0.16115,0.01565 -0.23941,0 -0.12372,-0.02475 -0.2367,-0.0891 -0.35911,-0.119703 -0.0387,-0.0097 -0.0798,0 -0.1197,0 -0.0798,0 -0.1596,0 -0.23941,0 -0.35911,0 -0.71822,0 -1.07733,0 -0.43891,0 -0.87782,0 -1.31673,0 -0.11971,0 -0.23941,0 -0.35911,0 -0.11971,0 -0.24104,-0.01968 -0.35911,0 -0.94535,0.157557 0.21548,0.119703 -0.71822,0.119703 -0.64059,0 0.27111,-0.02524 -0.59852,0.119703 -0.31058,0.05176 -0.64705,-0.05176 -0.95763,0 -0.12446,0.02074 -0.23538,0.09496 -0.35911,0.119704 -0.22166,0.04433 -0.61626,-0.04433 -0.83792,0 -0.12373,0.02474 -0.23538,0.09496 -0.35911,0.119703 -0.0783,0.01565 -0.15961,0 -0.23941,0 -0.31921,0 -0.63842,0 -0.95763,0 -0.1596,0 -0.32231,-0.0313 -0.47881,0 -0.12373,0.02475 -0.23538,0.09496 -0.35911,0.119704 -0.15651,0.0313 -0.31921,0 -0.47881,0 -0.27931,0 -0.55862,0 -0.83793,0 -0.1197,0 -0.24061,-0.01693 -0.35911,0 -0.16286,0.02327 -0.31653,0.09266 -0.47881,0.119703 -0.0787,0.01312 -0.15961,0 -0.23941,0 -0.1197,0 -0.23941,0 -0.35911,0 -0.23876,0 -0.47945,0 -0.71822,0 -0.1197,0 -0.24103,-0.01968 -0.35911,0 -0.12446,0.02074 -0.2342,0.101859 -0.35911,0.119703 -0.158,0.02257 -0.31921,0 -0.47881,0 -0.35911,0 -0.71822,0 -1.07733,0 -0.11971,0 -0.24104,-0.01968 -0.35911,0 -0.12447,0.02074 -0.2342,0.101859 -0.35911,0.119704 -0.2765,0.0395 -0.56242,-0.04592 -0.83793,0 -0.12446,0.02074 -0.2342,0.101859 -0.35911,0.119703 -0.158,0.02257 -0.31921,0 -0.47881,0 -0.1197,0 -0.23941,0 -0.35911,0 -0.79802,0 -1.59605,0 -2.39407,0 -0.1197,0 -0.23941,0 -0.35911,0 -0.0798,0 -0.16115,-0.01565 -0.23941,0 -0.12372,0.02475 -0.23538,0.09496 -0.35911,0.119704 -0.0783,0.01565 -0.1596,0 -0.2394,0 -0.27931,0 -0.55862,0 -0.83793,0 -0.67832,0 -1.35664,0 -2.03495,0 -0.23941,0 -0.47882,0 -0.71822,0 -0.0284,0 -0.45199,0.01341 -0.47882,0 -0.0505,-0.02524 -0.0692,-0.09447 -0.1197,-0.119704 -0.0268,-0.01341 -0.45037,0 -0.47882,0 -0.0798,0 -0.1596,0 -0.2394,0 -0.0798,0 -0.16199,-0.01935 -0.23941,0 -0.0866,0.02164 -0.15285,0.09806 -0.23941,0.119704 -0.0774,0.01935 -0.16115,-0.01565 -0.2394,0 -0.12373,0.02475 -0.23941,0.0798 -0.35911,0.119703 -0.11971,0.0399 -0.24196,0.07284 -0.35911,0.119703 -0.0828,0.03314 -0.15285,0.09806 -0.23941,0.119704 -0.80926,0.202315 0.8121,-0.630903 -0.83792,0.35911 z"
       style="fill:#ffffff;fill-opacity:0.95934957;stroke:none" />
    <path
       inkscape:connector-curvature="0"
       id="path3757"
       d="m 35.958027,-25.154386 c -0.22571,0.451429 -0.4897,0.885674 -0.67714,1.354289 -0.0322,0.08037 -0.0532,0.962572 0,1.015717 0.0798,0.0798 0.23763,-0.05047 0.33857,0 0.14275,0.07138 0.22571,0.225715 0.33857,0.338572 0.11286,0.112857 0.2672,0.195818 0.33857,0.338572 0,0.90286 -0.11285,-0.112857 0.33858,0.338573 0.70051,0.700518 -1.07049,-0.02738 0.33857,0.677144 0.10094,0.05047 0.25877,-0.0798 0.33857,0 0.70052,0.700518 -1.07048,-0.02738 0.33857,0.677145 0.10095,0.05047 0.25877,-0.0798 0.33857,0 0.0798,0.0798 -0.0798,0.25877 0,0.338572 0.0798,0.0798 0.25877,-0.0798 0.33858,0 0.0798,0.0798 -0.0798,0.25877 0,0.338573 0.11283,0.11283 0.56431,-0.112831 0.67714,0 0.0798,0.0798 -0.0798,0.25877 0,0.338572 0.70052,0.700518 -0.0274,-1.070485 0.67715,0.338572 0.0515,0.103039 0,0.863239 0,1.015717 0,1.249249 0,0.670679 0,2.031434 0,0.112857 0,0.225715 0,0.338572 0,0.112858 -0.0798,0.25877 0,0.338573 0.0798,0.0798 0.25877,-0.0798 0.33857,0 0.0798,0.0798 -0.0798,0.25877 0,0.338572 0.1596,0.159605 0.51754,-0.159605 0.67714,0 0.0798,0.0798 -0.0798,0.25877 0,0.338572 0.11281,0.112809 0.56434,-0.112808 0.67715,0 0.0798,0.0798 -0.0798,0.25877 0,0.338573 0.90286,0 -0.11286,-0.112858 0.33857,0.338572 0.1596,0.159604 0.51754,-0.159605 0.67714,0 0.0798,0.0798 -0.0798,0.25877 0,0.338572 0.0798,0.0798 0.25877,-0.0798 0.33858,0 0.0798,0.0798 -0.0798,0.25877 0,0.338573 0.0798,0.0798 0.25877,-0.0798 0.33857,0 0.0798,0.0798 -0.0798,0.25877 0,0.338572 0.11294,0.112941 0.5642,-0.112941 0.67714,0 0.0798,0.0798 -0.0798,0.25877 0,0.338572 0.15961,0.159605 0.51754,-0.159604 0.67715,0 0.0798,0.0798 -0.0798,0.25877 0,0.338573 0.1596,0.159604 0.47526,-0.100943 0.67714,0 0.14276,0.07138 0.19582,0.267195 0.33858,0.338572 0.2128,0.1064 1.14148,-0.1064 1.35428,0 1.12291,1.122903 -0.3192,-0.159605 0.67715,0.338572 0.14275,0.07138 0.19582,0.267195 0.33857,0.338572 0.10094,0.05047 0.23763,-0.05047 0.33857,0 0.28551,0.142755 0.39164,0.53439 0.67715,0.677145 0.10094,0.05047 0.23763,-0.05047 0.33857,0 0.14276,0.07138 0.19582,0.267195 0.33857,0.338572 0.10095,0.05047 0.25877,-0.0798 0.33858,0 0.0798,0.0798 -0.0798,0.25877 0,0.338573 0.0692,0.06922 0.88147,-0.06712 1.01571,0 0.14276,0.07138 0.19582,0.267195 0.33858,0.338572 0.13424,0.06712 0.9465,-0.06922 1.01571,0 0.0798,0.0798 -0.0798,0.25877 0,0.338572 0.0692,0.06922 0.88148,-0.06712 1.01572,0 0.14275,0.07138 0.19582,0.267195 0.33857,0.338573 0.27086,0.135429 0.74486,-0.135429 1.01572,0 0.14275,0.07138 0.19582,0.267195 0.33857,0.338572 0.10094,0.05047 0.25877,-0.0798 0.33857,0 0.0798,0.0798 -0.0798,0.25877 0,0.338572 0.0798,0.0798 0.25877,-0.0798 0.33858,0 0.0798,0.0798 -0.0798,0.25877 0,0.338573 0.1596,0.159604 0.51754,-0.159605 0.67714,0 0.0798,0.0798 -0.0798,0.25877 0,0.338572 0.1596,0.159604 0.47526,-0.100943 0.67714,0 1.12291,1.122903 -0.3192,-0.159605 0.67715,0.338572 0.14275,0.07138 0.19582,0.267195 0.33857,0.338573 0.27086,0.135428 0.74486,-0.135429 1.01572,0 0.14275,0.07138 0.19582,0.267195 0.33857,0.338572 0.27086,0.135429 0.74486,-0.135429 1.01572,0 0.14275,0.07138 0.19582,0.267195 0.33857,0.338572 0.13424,0.06712 0.9465,-0.06922 1.01572,0 0.0798,0.0798 -0.0798,0.25877 0,0.338572 0.16928,0.169287 0.84643,-0.169286 1.01571,0 0.0798,0.0798 -0.0798,0.258771 0,0.338573 0.0798,0.0798 0.22572,0 0.33858,0 0.11285,0 0.22571,0 0.33857,0 1.01572,0 2.03143,0 3.04715,0 1.12857,0 2.25715,0 3.38572,0 0.11286,0 0.22572,0 0.33857,0 0.11286,0 0.25877,0.0798 0.33858,0 0.0798,-0.0798 -0.0798,-0.25877 0,-0.338573 0.0109,-0.01089 0.9336,0 1.01571,0 0.90286,0 1.80572,0 2.70858,0 0.11286,0 0.25877,0.0798 0.33857,0 0.0798,-0.0798 -0.0798,-0.25877 0,-0.338572 0.16929,-0.169286 0.84644,0.169286 1.01572,0 0.0798,-0.0798 -0.0798,-0.25877 0,-0.338572 0.15961,-0.159605 0.47526,0.100943 0.67715,0 0.14275,-0.07138 0.19581,-0.267195 0.33857,-0.338572 0.13424,-0.06712 0.9465,0.06922 1.01572,0 0.0798,-0.0798 -0.0798,-0.258771 0,-0.338573 0.11294,-0.112941 0.5642,0.112941 0.67714,0 0.0798,-0.0798 -0.0798,-0.25877 0,-0.338572 0.0798,-0.0798 0.23763,0.05047 0.33857,0 0.14276,-0.07138 0.19582,-0.267195 0.33857,-0.338572 0.10095,-0.05047 0.23763,0.05047 0.33858,0 0.14275,-0.07138 0.19581,-0.267195 0.33857,-0.338573 0.10094,-0.05047 0.25877,0.0798 0.33857,0 0.0798,-0.0798 -0.0798,-0.25877 0,-0.338572 0.15961,-0.159605 0.47526,0.100943 0.67715,0 1.40905,-0.704528 -0.36195,0.02337 0.33857,-0.677145 0.16928,-0.169286 0.84643,0.169287 1.01572,0 0.0798,-0.0798 -0.0798,-0.25877 0,-0.338572 0.11884,-0.118845 1.45899,0.116932 1.69286,0 0.14275,-0.07138 0.19581,-0.267195 0.33857,-0.338572 0.18053,-0.09027 0.49661,0.09026 0.67714,0 0.14276,-0.07138 0.19582,-0.267195 0.33858,-0.338573 0.20188,-0.100942 0.47526,0.100943 0.67714,0 0.14276,-0.07138 0.19582,-0.267195 0.33857,-0.338572 0.20189,-0.100943 0.51754,0.159605 0.67715,0 0.0798,-0.0798 -0.0798,-0.25877 0,-0.338572 0.0926,-0.09264 1.17062,0.09184 1.35429,0 0.14275,-0.07138 0.19582,-0.267195 0.33857,-0.338573 0.2128,-0.1064 1.14149,0.106401 1.35429,0 0.14275,-0.07138 0.19582,-0.267195 0.33857,-0.338572 0.20559,-0.102794 1.82585,0.102794 2.03144,0 0.14275,-0.07138 0.19581,-0.267195 0.33857,-0.338572 0.20188,-0.100943 0.51754,0.159604 0.67714,0 0.0798,-0.0798 -0.0798,-0.25877 0,-0.338572 0.16929,-0.169287 0.84643,0.169286 1.01572,0 0.0798,-0.0798 -0.0798,-0.258771 0,-0.338573 0.0798,-0.0798 0.25877,0.0798 0.33857,0 0.0798,-0.0798 -0.0798,-0.25877 0,-0.338572 0.0798,-0.0798 0.25877,0.0798 0.33857,0 0.0798,-0.0798 -0.0798,-0.25877 0,-0.338572 0.0798,-0.0798 0.25877,0.0798 0.33858,0 0.11283,-0.112831 -0.11283,-0.564314 0,-0.677145 0.0798,-0.0798 0.25877,0.0798 0.33857,0 0.0798,-0.0798 0,-0.225715 0,-0.338572 0,-0.677145 0,-1.35429 0,-2.031434 0,-0.112858 0,-0.225715 0,-0.338573 0,-0.112857 -0.0505,-0.237629 0,-0.338572 0.0714,-0.142755 0.26719,-0.195818 0.33857,-0.338572 0.0515,-0.103039 0,-0.863239 0,-1.015717 0,-0.225883 0,-0.451262 0,-0.677145 0,-0.112857 0,-0.45143 0,-0.338572 0,0.774756 -0.0714,1.301226 0.33857,-0.338572 0.0274,-0.109488 -0.0505,-0.23763 0,-0.338573 0.0714,-0.142754 0.2672,-0.195817 0.33858,-0.338572 0.0505,-0.100943 -0.0798,-0.25877 0,-0.338572 0.0798,-0.0798 0.23762,0.05047 0.33857,0 1.1229,-1.122903 -0.31921,0.159604 0.67714,-0.338573 0.14276,-0.07138 0.19582,-0.267195 0.33857,-0.338572 0.10095,-0.05047 0.25877,0.0798 0.33858,0 0.0798,-0.0798 -0.0798,-0.25877 0,-0.338572 0.0798,-0.0798 0.25877,0.0798 0.33857,0 0.0798,-0.0798 -0.0798,-0.25877 0,-0.338573 0.0798,-0.0798 0.25877,0.0798 0.33857,0 0.0798,-0.0798 -0.0798,-0.25877 0,-0.338572 0.0798,-0.0798 0.25877,0.0798 0.33857,0 0.0798,-0.0798 -0.0798,-0.25877 0,-0.338572 0.45143,-0.45143 0.33858,0.564287 0.33858,-0.338573 0,-0.902859 0.11285,0.112858 -0.33858,-0.338572 -0.0692,-0.06922 0.0671,-0.881476 0,-1.015717 -0.0714,-0.142754 -0.26719,-0.195818 -0.33857,-0.338572 -0.10094,-0.201886 0.15961,-0.51754 0,-0.677145 -0.0798,-0.0798 -0.25877,0.0798 -0.33857,0 -0.0798,-0.0798 0.0798,-0.25877 0,-0.338572 -0.0798,-0.0798 -0.25877,0.0798 -0.33857,0 -0.0798,-0.0798 0.0798,-0.25877 0,-0.338572 -0.16929,-0.169287 -0.84643,0.169286 -1.01572,0 -0.0798,-0.0798 0.0798,-0.25877 0,-0.338573 -0.1596,-0.159604 -0.67714,0.225715 -0.67714,0 0,-0.112857 0.45142,0 0.33857,0 -0.22572,0 -0.45143,0 -0.67715,0 -0.11285,0 -0.23763,-0.05047 -0.33857,0 -0.14275,0.07138 -0.19582,0.267195 -0.33857,0.338573 -0.10094,0.05047 -0.22572,0 -0.33857,0 -0.11286,0 -0.22572,0 -0.33858,0 -0.11285,0 -0.33857,0.112857 -0.33857,0 0,-0.112858 0.45143,0 0.33857,0 -0.22571,0 -0.47526,0.100942 -0.67714,0 -0.20189,-0.100943 0.1596,-0.517541 0,-0.677145 -0.0798,-0.0798 -0.25877,0.0798 -0.33857,0 -0.0109,-0.01089 0,-0.933604 0,-1.015717 0,-0.112857 -0.11286,-0.338572 0,-0.338572 0.11285,0 0,0.451429 0,0.338572 0,-0.225715 0.10094,-0.475259 0,-0.677145 -0.0505,-0.100942 -0.25877,0.0798 -0.33858,0 -0.0798,-0.0798 0.0798,-0.25877 0,-0.338572 -0.0798,-0.0798 -0.25877,0.0798 -0.33857,0 -0.0798,-0.0798 0.0505,-0.237629 0,-0.338572 -0.0714,-0.142755 -0.26719,-0.195818 -0.33857,-0.338573 -0.0505,-0.100942 0.0798,-0.25877 0,-0.338572 -0.0798,-0.0798 -0.25877,0.0798 -0.33857,0 -0.0798,-0.0798 0.0798,-0.25877 0,-0.338572 -0.0798,-0.0798 -0.25877,0.0798 -0.33857,0 -0.0798,-0.0798 0.0798,-0.25877 0,-0.338573 -0.0798,-0.0798 -0.23763,0.05047 -0.33858,0 -0.14275,-0.07138 -0.19581,-0.267195 -0.33857,-0.338572 -0.10094,-0.05047 -0.23763,0.05047 -0.33857,0 -0.14276,-0.07138 -0.19582,-0.267195 -0.33857,-0.338572 -0.10095,-0.05047 -0.23763,0.05047 -0.33858,0 -0.14275,-0.07138 -0.19581,-0.267195 -0.33857,-0.338572 -0.20188,-0.100943 -0.47526,0.100942 -0.67714,0 -0.14276,-0.07138 -0.19582,-0.267195 -0.33858,-0.338573 -0.23386,-0.116931 -1.57401,0.118846 -1.69286,0 -0.0798,-0.0798 0.0798,-0.25877 0,-0.338572 -0.0798,-0.0798 -0.22571,0 -0.33857,0 -0.11286,0 -0.22571,0 -0.33857,0 -0.56429,0 -1.12858,0 -1.69286,0 -0.11286,0 -0.22572,0 -0.33858,0 -0.11285,0 -0.23763,0.05047 -0.33857,0 -0.14275,-0.07138 -0.19582,-0.267195 -0.33857,-0.338572 -0.10294,-0.05147 -1.1205,0 -1.35429,0 -1.12857,0 -2.25715,0 -3.38572,0 -0.56429,0 -1.12858,0 -1.69286,0 -0.11286,0 -0.22572,0 -0.33858,0 -0.11285,0 -0.23763,-0.05047 -0.33857,0 -0.14275,0.07138 -0.19582,0.267195 -0.33857,0.338572 -0.10304,0.05152 -0.86324,0 -1.01572,0 -2.48286,0 -4.96573,0 -7.44859,0 -0.79,0 -1.58,0 -2.37001,0 -0.33857,0 -0.69451,-0.107066 -1.01571,0 -0.15142,0.05047 -0.19582,0.267195 -0.33857,0.338572 -0.0875,0.04377 -1.79146,0 -2.03144,0 -0.56429,0 -1.12857,0 -1.69286,0 -0.11286,0 -0.25877,0.0798 -0.33857,0 -0.0798,-0.0798 0.0798,-0.25877 0,-0.338572 -0.0154,-0.01534 -1.53323,0 -1.69286,0 -1.46715,0 -2.9343,0 -4.40144,0 -0.23549,0 -1.57043,-0.06122 -1.69287,0 -0.14275,0.07138 -0.19581,0.267195 -0.33857,0.338572 -0.10094,0.05047 -0.22571,0 -0.33857,0 -0.11286,0 -0.22572,0 -0.33857,0 -0.56429,0 -1.12858,0 -1.69286,0 -0.11286,0 -0.23763,-0.05047 -0.33858,0 -0.14275,0.07138 -0.19581,0.267195 -0.33857,0.338573 -0.18367,0.09183 -1.26165,-0.09264 -1.35429,0 -0.0798,0.0798 0.0798,0.25877 0,0.338572 -0.11283,0.112831 -0.56431,-0.112831 -0.67714,0 -0.0798,0.0798 0.0798,0.25877 0,0.338572 -0.11294,0.112941 -0.56421,-0.112941 -0.67715,0 -0.0798,0.0798 0.0798,0.25877 0,0.338572 -0.11294,0.112942 -0.5642,-0.112941 -0.67714,0 -0.0798,0.0798 0.0798,0.258771 0,0.338573 -0.0798,0.0798 -0.23763,-0.05047 -0.33857,0 -0.14276,0.07138 -0.19582,0.267195 -0.33858,0.338572 -0.20188,0.100943 -0.47526,-0.100943 -0.67714,0 -1.40906,0.704529 0.36194,-0.02337 -0.33857,0.677145 -0.15961,0.159604 -0.51754,-0.159605 -0.67715,0 -0.0798,0.0798 0.0798,0.25877 0,0.338572 -0.1596,0.159605 -0.47526,-0.100943 -0.67714,0 -0.14276,0.07138 -0.19582,0.267195 -0.33858,0.338572 -0.10094,0.05047 -0.25877,-0.0798 -0.33857,0 -0.78592,1.57184 0.22362,0.05748 -1.01571,0.677145 -0.10095,0.05047 0.0798,0.25877 0,0.338572 -0.11281,0.112809 -0.56434,-0.112808 -0.67715,0 -0.0798,0.0798 0.0798,0.25877 0,0.338573 -0.0798,0.0798 -0.23763,-0.05047 -0.33857,0 -0.14276,0.07138 -0.19582,0.267195 -0.33857,0.338572 -0.1805,0.09025 -0.49665,-0.09025 -0.67715,0 -0.14275,0.07138 -0.19582,0.267195 -0.33857,0.338572 -0.10094,0.05047 -0.23763,-0.05047 -0.33857,0 -0.28551,0.142755 -0.39164,0.53439 -0.67715,0.677145 -0.54359,0.271797 -1.12857,0.45143 -1.69286,0.677145 z"
       style="fill:#f7bd7a;fill-opacity:1;stroke:none" />
    <path
       inkscape:connector-curvature="0"
       id="path2987"
       d="m 43.052157,-36.162384 c -0.19193,1.009073 -0.83308,0.05743 -1.19703,0.239407 -0.10094,0.05047 -0.13846,0.188936 -0.23941,0.239407 -0.0714,0.03569 -0.18298,-0.05643 -0.2394,0 -0.0564,0.05643 0.0564,0.182978 0,0.239407 -0.0564,0.05643 -0.16803,-0.03569 -0.23941,0 -0.10094,0.05047 -0.13846,0.188935 -0.23941,0.239406 -0.0714,0.03569 -0.16803,-0.03569 -0.2394,0 -0.0642,0.03208 -0.41466,0.446733 -0.47882,0.478814 -0.0714,0.03569 -0.18298,-0.05643 -0.2394,0 -0.0564,0.05643 0.0564,0.182978 0,0.239407 -0.0564,0.05643 -0.18298,-0.05643 -0.23941,0 -0.11286,0.112857 0.11286,0.365956 0,0.478813 -0.0564,0.05643 -0.16803,-0.03569 -0.23941,0 -0.99635,0.498177 0.25594,-0.01653 -0.23941,0.478814 -0.0564,0.05643 -0.18297,-0.05643 -0.2394,0 -0.49534,0.495341 0.75694,-0.01936 -0.23941,0.478813 -0.0714,0.03569 -0.18298,-0.05643 -0.23941,0 -0.0564,0.05643 0.0357,0.16803 0,0.239407 -0.0505,0.100943 -0.18893,0.138464 -0.2394,0.239407 -0.0357,0.07138 0.0564,0.182978 0,0.239407 -0.0564,0.05643 -0.16803,-0.03569 -0.23941,0 -0.99635,0.498177 0.25594,-0.01653 -0.23941,0.478813 -0.49534,0.495342 0.0194,-0.756947 -0.47881,0.239407 -0.0357,0.07138 0.0564,0.182978 0,0.239407 -0.49534,0.495341 0.0194,-0.756947 -0.47881,0.239407 -0.0357,0.07138 0.0564,0.182978 0,0.239406 -0.11286,0.112858 -0.36596,-0.112857 -0.47882,0 -0.11285,0.112858 0.11286,0.365957 0,0.478814 -0.0564,0.05643 -0.18297,-0.05643 -0.2394,0 -0.0564,0.05643 0,0.159605 0,0.239407 -0.0798,0 -0.18298,-0.05643 -0.23941,0 -0.0564,0.05643 0.0564,0.182978 0,0.239407 -0.0564,0.05643 -0.18298,-0.05643 -0.23941,0 -0.0564,0.05643 0.0357,0.168029 0,0.239406 -0.0505,0.100943 -0.18893,0.138464 -0.2394,0.239407 -0.0357,0.07138 0.0564,0.182978 0,0.239407 -0.0564,0.05643 -0.18298,-0.05643 -0.23941,0 -0.0564,0.05643 0.0564,0.182978 0,0.239407 -0.0564,0.05643 -0.18298,-0.05643 -0.23941,0 -0.0564,0.05643 0.0564,0.182978 0,0.239407 -0.0564,0.05643 -0.18298,-0.05643 -0.2394,0 -0.0564,0.05643 0.0564,0.182978 0,0.239406 -0.0564,0.05643 -0.18298,-0.05643 -0.23941,0 -0.0564,0.05643 0.0564,0.182978 0,0.239407 -0.0564,0.05643 -0.18298,-0.05643 -0.23941,0 -0.0564,0.05643 0,0.159605 0,0.239407 0,0.0798 0,0.159604 0,0.239407 0,0.169692 -0.031,1.374542 0,1.43644 0.0505,0.100943 0.18894,0.138464 0.23941,0.239407 0.0357,0.07138 0,0.159605 0,0.239407 0,0.0798 0,0.159604 0,0.239407 0,0.0798 0,0.159604 0,0.239406 0,0.0798 -0.0564,0.182978 0,0.239407 0.0564,0.05643 0.16803,-0.03569 0.23941,0 0.10094,0.05047 0.13846,0.188936 0.2394,0.239407 0.0714,0.03569 0.18298,-0.05643 0.23941,0 0.0564,0.05643 -0.0564,0.182978 0,0.239407 0.0564,0.05643 0.16803,-0.03569 0.23941,0 0.20188,0.100943 0.27692,0.377871 0.47881,0.478813 0.0714,0.03569 0.18298,-0.05643 0.23941,0 0.0564,0.05643 -0.0564,0.182978 0,0.239407 0.0564,0.05643 0.16803,-0.03569 0.2394,0 0.79402,0.794012 -0.22571,-0.112857 0.47882,0.239407 0.10094,0.05047 0.13846,0.188935 0.2394,0.239407 0.0729,0.03643 0.61041,0 0.71822,0 0.47882,0 0.95763,0 1.43644,0 0.0798,0 0.15961,0 0.23941,0 0.0798,0 0.16803,-0.03569 0.23941,0 0.10094,0.05047 0.13846,0.188935 0.23941,0.239406 0.0728,0.03643 0.6104,0 0.71822,0 0.55861,0 1.11723,0 1.67584,0 0.15961,0 0.31921,0 0.47882,0 0.0798,0 0.1637,-0.02523 0.2394,0 0.16929,0.05643 0.3057,0.196128 0.47882,0.239407 0.23226,0.05806 0.47881,0 0.71822,0 0.87782,0 1.75565,0 2.63347,0 0.16652,0 1.11046,-0.04329 1.19704,0 0.10094,0.05047 0.13846,0.188936 0.2394,0.239407 0.0729,0.03643 0.6104,0 0.71822,0 0.63842,0 1.27684,0 1.91526,0 0.63842,0 1.27683,0 1.91525,0 0.10782,0 0.64536,0.03643 0.71822,0 0.10094,-0.05047 0.13847,-0.188935 0.23941,-0.239407 0.0714,-0.03569 0.1596,0 0.23941,0 0.0798,0 0.1596,0 0.2394,0 0.47882,0 0.95763,0 1.43644,0 0.0798,0 0.15961,0 0.23941,0 0.0798,0 0.16803,0.03569 0.23941,0 0.10094,-0.05047 0.13846,-0.188935 0.2394,-0.239407 0.15048,-0.07524 0.80716,0.07524 0.95763,0 0.10094,-0.05047 0.13846,-0.188935 0.23941,-0.239406 0.14275,-0.07138 0.33606,0.07138 0.47881,0 0.10094,-0.05047 0.13846,-0.188936 0.23941,-0.239407 0.14275,-0.07138 0.36595,0.112857 0.47881,0 0.0564,-0.05643 -0.0564,-0.182978 0,-0.239407 0.0564,-0.05643 0.16803,0.03569 0.23941,0 0.10094,-0.05047 0.13846,-0.188935 0.2394,-0.239407 0.0714,-0.03569 0.18298,0.05643 0.23941,0 0.0564,-0.05643 -0.0564,-0.182978 0,-0.239406 0.12618,-0.126179 0.30953,-0.182979 0.47881,-0.239407 0.0757,-0.02524 0.18298,0.05643 0.23941,0 0.0564,-0.05643 -0.0564,-0.182978 0,-0.239407 0.0564,-0.05643 0.16803,0.03569 0.23941,0 0.10094,-0.05047 0.13846,-0.188935 0.23941,-0.239407 0.0714,-0.03569 0.18297,0.05643 0.2394,0 0.0564,-0.05643 -0.0564,-0.182978 0,-0.239407 0.0564,-0.05643 0.16803,0.03569 0.23941,0 0.0458,-0.02291 0.93471,-0.911799 0.95763,-0.957627 0.0357,-0.07138 -0.0564,-0.182978 0,-0.239406 0.0564,-0.05643 0.18297,0.05643 0.2394,0 0.0564,-0.05643 -0.0357,-0.16803 0,-0.239407 0.10095,-0.201886 0.37787,-0.276928 0.47882,-0.478814 0.0357,-0.07138 -0.0564,-0.182978 0,-0.239407 0.0564,-0.05643 0.18297,0.05643 0.2394,0 0.0564,-0.05643 -0.0357,-0.168029 0,-0.239406 0.0505,-0.100943 0.18894,-0.138464 0.23941,-0.239407 0.0357,-0.07138 -0.0564,-0.182978 0,-0.239407 0.0564,-0.05643 0.18298,0.05643 0.23941,0 0.0564,-0.05643 -0.0564,-0.182978 0,-0.239407 0.0564,-0.05643 0.18297,0.05643 0.2394,0 0.0564,-0.05643 -0.0357,-0.168029 0,-0.239406 0.10095,-0.201886 0.37787,-0.276929 0.47882,-0.478814 0.0357,-0.07138 -0.0564,-0.182978 0,-0.239407 0.0564,-0.05643 0.18297,0.05643 0.2394,0 0.0564,-0.05643 -0.0564,-0.182978 0,-0.239407 0.0564,-0.05643 0.18298,0.05643 0.23941,0 0.0564,-0.05643 -0.0357,-0.168029 0,-0.239406 0.0505,-0.100943 0.18894,-0.138464 0.23941,-0.239407 0.0357,-0.07138 -0.0564,-0.182978 0,-0.239407 0.0564,-0.05643 0.18298,0.05643 0.2394,0 0.11286,-0.112857 -0.1596,-0.478814 0,-0.478814 0.0798,0 -0.0564,0.182979 0,0.239407 0.0564,0.05643 0.18298,-0.05643 0.23941,0 0.0564,0.05643 0,0.159605 0,0.239407 0,0.399011 0,0.798023 0,1.197034 0,0.0798 0,0.159604 0,0.239407 0,0.0798 0.0564,0.182978 0,0.239407 -0.0564,0.05643 -0.18298,-0.05643 -0.23941,0 -0.0741,0.07413 0.0741,1.122902 0,1.197033 -0.0564,0.05643 -0.18297,-0.05643 -0.2394,0 -0.0564,0.05643 0,0.159605 0,0.239407 0,0.0798 0,0.159605 0,0.239407 0,0.399011 0,0.798023 0,1.197034 0,0.0798 -0.0564,0.182978 0,0.239407 0.1197,0.119703 0.59851,-0.119704 0.71822,0 0.0564,0.05643 -0.0564,0.182978 0,0.239406 0.0564,0.05643 0.1596,0 0.2394,0 0.0798,0 0.15961,0 0.23941,0 0.16969,0 1.37454,0.03095 1.43644,0 0.10094,-0.05047 0.13847,-0.188935 0.23941,-0.239406 0.0714,-0.03569 0.1637,0.02524 0.23941,0 0.16928,-0.05643 0.30952,-0.182978 0.47881,-0.239407 0.21246,-0.07082 1.04027,0.07838 1.19703,0 0.10095,-0.05047 0.13847,-0.188936 0.23941,-0.239407 0.14275,-0.07138 0.3274,0.05047 0.47881,0 0.16929,-0.05643 0.30953,-0.182978 0.47882,-0.239407 0.13199,-0.044 0.90644,0.05119 0.95762,0 0.0564,-0.05643 -0.0564,-0.182978 0,-0.239406 0.0564,-0.05643 0.15961,0 0.23941,0 0.11288,0 1.18618,0.01085 1.19703,0 0.0564,-0.05643 -0.0564,-0.182979 0,-0.239407 0.11286,-0.112858 0.36596,0.112857 0.47882,0 0.0564,-0.05643 -0.0564,-0.182978 0,-0.239407 0.0799,-0.07989 0.39892,0.07989 0.47881,0 0.0564,-0.05643 -0.0357,-0.168029 0,-0.239407 0.26467,-0.529341 0.14859,-0.07429 0.47882,-0.239407 0.10094,-0.05047 0.13846,-0.188935 0.2394,-0.239406 0.33023,-0.165114 0.21414,0.289934 0.47882,-0.239407 0.0357,-0.07138 -0.0564,-0.182978 0,-0.239407 0.0564,-0.05643 0.18297,0.05643 0.2394,0 0.0564,-0.05643 -0.0564,-0.182978 0,-0.239407 0.0564,-0.05643 0.18298,0.05643 0.23941,0 0.11286,-0.112857 -0.11286,-0.365956 0,-0.478813 0.0564,-0.05643 0.18298,0.05643 0.23941,0 0.0564,-0.05643 -0.0564,-0.182978 0,-0.239407 0.0564,-0.05643 0.18297,0.05643 0.2394,0 0.0564,-0.05643 -0.0357,-0.16803 0,-0.239407 0.0505,-0.100943 0.15961,-0.159604 0.23941,-0.239407 0.0798,-0.0798 0.13846,-0.188935 0.23941,-0.239406 0.0714,-0.03569 0.18297,0.05643 0.2394,0 0.11286,-0.112858 -0.11285,-0.365957 0,-0.478814 0.0564,-0.05643 0.18298,0.05643 0.23941,0 0.11286,-0.112857 -0.11286,-0.365956 0,-0.478814 0.0564,-0.05643 0.18298,0.05643 0.23941,0 0.11285,-0.112857 -0.11286,-0.365956 0,-0.478813 0.0564,-0.05643 0.18297,0.05643 0.2394,0 0.49534,-0.495341 -0.75694,0.01936 0.23941,-0.478814 0.0714,-0.03569 0.18298,0.05643 0.23941,0 0.0564,-0.05643 -0.0564,-0.182978 0,-0.239406 0.1197,-0.119704 0.59851,0.119703 0.71822,0 0.0564,-0.05643 -0.0564,-0.182978 0,-0.239407 0.0564,-0.05643 0.2394,-0.0798 0.2394,0 0,0.112857 -0.18893,0.138464 -0.2394,0.239407 -0.0649,0.129875 0.0655,0.89212 0,0.957627 -0.0564,0.05643 -0.18298,-0.05643 -0.23941,0 -0.11286,0.112857 0.11286,0.365956 0,0.478813 -0.0564,0.05643 -0.18298,-0.05643 -0.23941,0 -0.11285,0.112858 0.0714,0.336059 0,0.478814 -0.0505,0.100943 -0.18893,0.138464 -0.2394,0.239407 -0.0475,0.09492 0.0489,0.669276 0,0.71822 -0.0564,0.05643 -0.18298,-0.05643 -0.23941,0 -0.0564,0.05643 0.0357,0.168029 0,0.239407 -0.0505,0.100942 -0.18894,0.138464 -0.23941,0.239407 -0.0649,0.129875 0.0655,0.89212 0,0.957627 -0.0564,0.05643 -0.18297,-0.05643 -0.2394,0 -0.0239,0.02394 -0.0239,0.694279 0,0.71822 0.0564,0.05643 0.1596,0 0.2394,0 0.55862,0 1.11723,0 1.67585,0 0.0879,0 0.94799,0.0096 0.95763,0 0.0564,-0.05643 -0.0564,-0.182978 0,-0.239407 0.0564,-0.05643 0.16803,0.03569 0.2394,0 0.10095,-0.05047 0.13847,-0.188935 0.23941,-0.239407 0.14276,-0.07138 0.36596,0.112858 0.47881,0 0.0564,-0.05643 -0.0564,-0.182978 0,-0.239406 0.0564,-0.05643 0.16803,0.03569 0.23941,0 0.10094,-0.05047 0.13847,-0.188936 0.23941,-0.239407 0.0714,-0.03569 0.18298,0.05643 0.23941,0 0.0564,-0.05643 -0.0564,-0.182978 0,-0.239407 0.11285,-0.112857 0.36595,0.112858 0.47881,0 0.0564,-0.05643 -0.0564,-0.182978 0,-0.239407 0.0564,-0.05643 0.18298,0.05643 0.23941,0 0.0564,-0.05643 -0.0564,-0.182978 0,-0.239406 0.16263,-0.162636 0.47612,0.244788 0.71822,-0.239407 0.0357,-0.07138 -0.0564,-0.182978 0,-0.239407 0.0489,-0.04894 0.62329,0.04746 0.71822,0 0.99635,-0.498177 -0.25594,0.01653 0.2394,-0.478814 0.11286,-0.112857 0.36596,0.112858 0.47882,0 0.0564,-0.05643 -0.0564,-0.182978 0,-0.239406 0.0564,-0.05643 0.16803,0.03569 0.2394,0 0.10095,-0.05047 0.13847,-0.188936 0.23941,-0.239407 0.0714,-0.03569 0.18298,0.05643 0.23941,0 0.0564,-0.05643 -0.0564,-0.182978 0,-0.239407 0.1197,-0.119703 0.59851,0.119703 0.71822,0 0.0564,-0.05643 -0.0564,-0.182978 0,-0.239407 0.11285,-0.112857 0.36595,0.112858 0.47881,0 0.0564,-0.05643 -0.0564,-0.182978 0,-0.239407 0.11286,-0.112857 0.36596,0.112858 0.47881,0 0.0564,-0.05643 -0.0564,-0.182978 0,-0.239406 0.0564,-0.05643 0.18298,0.05643 0.23941,0 0.0564,-0.05643 -0.0564,-0.182978 0,-0.239407 0.0564,-0.05643 0.18298,0.05643 0.23941,0 0.0564,-0.05643 -0.0564,-0.182978 0,-0.239407 0.11286,-0.112857 0.36595,0.112858 0.47881,0 0.0564,-0.05643 -0.0564,-0.182978 0,-0.239407 0.0564,-0.05643 0.15961,0 0.23941,0 0.0798,0 0.1596,0 0.23941,0 0.0798,0 0.16802,-0.03569 0.2394,0 0.12787,0.06393 0.59218,0.592182 0.71822,0.718221 0.12604,0.126039 0.65429,0.590357 0.71822,0.71822 0.0357,0.07138 -0.0564,0.182978 0,0.239407 0.0564,0.05643 0.18298,-0.05643 0.23941,0 0.0564,0.05643 -0.0357,0.168029 0,0.239407 0.49818,0.996353 -0.0165,-0.255935 0.47881,0.239406 0.0564,0.05643 -0.0564,0.182978 0,0.239407 0.0564,0.05643 0.18298,-0.05643 0.23941,0 0.0564,0.05643 -0.0564,0.182978 0,0.239407 0.0564,0.05643 0.18298,-0.05643 0.23941,0 0.0564,0.05643 -0.0564,0.182978 0,0.239407 0.0564,0.05643 0.16803,-0.03569 0.2394,0 0.10095,0.05047 0.13847,0.188935 0.23941,0.239407 0.14275,0.07138 0.36596,-0.112858 0.47881,0 0.0564,0.05643 -0.0564,0.182978 0,0.239406 0.0564,0.05643 0.18298,-0.05643 0.23941,0 0.0564,0.05643 -0.0564,0.182978 0,0.239407 0.0564,0.05643 0.18298,-0.05643 0.23941,0 0.0564,0.05643 -0.0564,0.182978 0,0.239407 0.0564,0.05643 0.18298,-0.05643 0.2394,0 0.0564,0.05643 -0.0564,0.182978 0,0.239407 0.0564,0.05643 0.15961,0 0.23941,0 0.0798,0 0.18298,0.05643 0.23941,0 0.0564,-0.05643 -0.0564,-0.182978 0,-0.239407 0.0564,-0.05643 0.18298,0.05643 0.2394,0 0.11286,-0.112858 -0.11285,-0.365956 0,-0.478814 0.0564,-0.05643 0.18298,0.05643 0.23941,0 0.0564,-0.05643 0,-0.159604 0,-0.239406 0,-0.638419 0,-1.276837 0,-1.915255 0,-0.798022 0,-1.596045 0,-2.394068 0,-0.0798 0,-0.159604 0,-0.239406 0,-0.0798 0.0564,-0.182978 0,-0.239407 -0.0564,-0.05643 -0.18298,0.05643 -0.23941,0 -0.0799,-0.07989 0.0799,-0.398924 0,-0.478814 -0.0564,-0.05643 -0.18297,0.05643 -0.2394,0 -0.11286,-0.112857 0.11285,-0.365956 0,-0.478813 -0.0564,-0.05643 -0.18298,0.05643 -0.23941,0 -0.0564,-0.05643 0.0564,-0.182978 0,-0.239407 -0.0564,-0.05643 -0.16803,0.03569 -0.23941,0 -0.0631,-0.03157 -0.41566,-0.447241 -0.47881,-0.478814 -0.0714,-0.03569 -0.18298,0.05643 -0.23941,0 -0.0564,-0.05643 0.0564,-0.182978 0,-0.239406 -0.11285,-0.112858 -0.36595,0.112857 -0.47881,0 -0.0564,-0.05643 0.0564,-0.182978 0,-0.239407 -0.0564,-0.05643 -0.16803,0.03569 -0.23941,0 -0.10094,-0.05047 -0.13846,-0.188936 -0.2394,-0.239407 -0.0714,-0.03569 -0.16803,0.03569 -0.23941,0 -0.10094,-0.05047 -0.13846,-0.188935 -0.23941,-0.239407 -0.14275,-0.07138 -0.36595,0.112858 -0.47881,0 -0.49534,-0.495341 0.75695,0.01936 -0.23941,-0.478813 -0.0949,-0.04746 -0.66927,0.04894 -0.71822,0 -0.0564,-0.05643 0.0564,-0.182978 0,-0.239407 -0.11286,-0.112857 -0.36595,0.112857 -0.47881,0 -0.0564,-0.05643 0.0564,-0.182978 0,-0.239407 -0.11286,-0.112857 -0.36596,0.112858 -0.47881,0 -0.0564,-0.05643 0.0564,-0.182978 0,-0.239407 -0.0564,-0.05643 -0.16803,0.03569 -0.23941,0 -0.10094,-0.05047 -0.13847,-0.188935 -0.23941,-0.239406 -0.14275,-0.07138 -0.33606,0.07138 -0.47881,0 -0.10094,-0.05047 -0.13847,-0.188936 -0.23941,-0.239407 -0.14275,-0.07138 -0.36595,0.112857 -0.47881,0 -0.0564,-0.05643 0,-0.159605 0,-0.239407 -0.0798,0 -0.16803,0.03569 -0.23941,0 -0.10094,-0.05047 -0.13846,-0.188935 -0.23941,-0.239407 -0.0949,-0.04746 -0.66927,0.04894 -0.71822,0 -0.0564,-0.05643 0.0564,-0.182978 0,-0.239406 -0.1197,-0.119704 -0.59851,0.119703 -0.71822,0 -0.0564,-0.05643 0.0564,-0.182979 0,-0.239407 -0.0655,-0.06551 -0.82775,0.06494 -0.95762,0 -0.10095,-0.05047 -0.13847,-0.188936 -0.23941,-0.239407 -0.0714,-0.03569 -0.15961,0 -0.23941,0 -0.39901,0 -0.79802,0 -1.19703,0 -0.0798,0 -0.15961,0 -0.23941,0 -0.0798,0 -0.16803,0.03569 -0.2394,0 -0.10095,-0.05047 -0.13847,-0.188935 -0.23941,-0.239407 -0.0729,-0.03643 -0.6104,0 -0.71822,0 -0.55862,0 -1.11723,0 -1.67585,0 -0.10782,0 -0.64536,0.03643 -0.71822,0 -0.10094,-0.05047 -0.13846,-0.188935 -0.23941,-0.239407 -0.15047,-0.07524 -0.80715,0.07524 -0.95762,0 -0.10095,-0.05047 -0.13847,-0.188935 -0.23941,-0.239406 -0.0866,-0.04329 -1.03052,0 -1.19703,0 -0.1697,0 -1.37455,0.03095 -1.43644,0 -0.10095,-0.05047 -0.13847,-0.188936 -0.23941,-0.239407 -0.14537,-0.07269 -1.29107,0.07269 -1.43644,0 -0.10095,-0.05047 -0.13847,-0.188936 -0.23941,-0.239407 -0.0866,-0.04329 -1.03052,0 -1.19703,0 -0.0798,0 -0.18298,0.05643 -0.23941,0 -0.0564,-0.05643 0.0564,-0.182978 0,-0.239407 -0.0564,-0.05643 -0.1596,0 -0.23941,0 -0.0798,0 -0.1596,0 -0.2394,0 -0.1697,0 -1.37455,0.03095 -1.43644,0 -0.10095,-0.05047 -0.13847,-0.188935 -0.23941,-0.239406 -0.063,-0.03148 -0.83244,0 -0.95763,0 -0.79802,0 -1.59604,0 -2.39407,0 -2.23446,0 -4.46892,0 -6.70339,0 -1.59604,0 -3.19209,0 -4.78813,0 -0.0581,0 -0.71052,-0.0077 -0.71822,0 -0.0564,0.05643 0.0564,0.182978 0,0.239406 -0.0564,0.05643 -0.15961,0 -0.23941,0 -0.11288,0 -1.18618,-0.01085 -1.19703,0 -0.0564,0.05643 0.0564,0.182978 0,0.239407 -0.0564,0.05643 -0.15961,0 -0.23941,0 -0.16652,0 -1.11046,-0.04329 -1.19703,0 -0.10095,0.05047 -0.13847,0.188935 -0.23941,0.239407 -0.15047,0.07524 -0.80715,-0.07524 -0.95763,0 -0.10094,0.05047 -0.13846,0.188935 -0.2394,0.239407 -0.19153,0.09576 -0.5267,-0.09576 -0.71822,0 -0.10095,0.05047 -0.13847,0.188935 -0.23941,0.239406 -0.16537,0.08268 -1.113,-0.08404 -1.19703,0 -0.0564,0.05643 0.0564,0.182978 0,0.239407 -0.0489,0.04894 -0.6233,-0.04746 -0.71823,0 -0.10094,0.05047 -0.13846,0.188936 -0.2394,0.239407 -0.0714,0.03569 -0.15961,0 -0.23941,0 -0.0798,0.0798 -0.13846,0.188935 -0.23941,0.239407 -0.14275,0.07138 -0.33605,-0.07138 -0.47881,0 -0.10094,0.05047 -0.13846,0.188935 -0.23941,0.239407 -0.0714,0.03569 -0.18297,-0.05643 -0.2394,0 -0.0564,0.05643 0.0564,0.182978 0,0.239406 -0.11286,0.112858 -0.33606,-0.07138 -0.47882,0 -0.10094,0.05047 -0.13846,0.188936 -0.2394,0.239407 -0.0714,0.03569 -0.18298,-0.05643 -0.23941,0 -0.0564,0.05643 0.0564,0.182978 0,0.239407 -0.11286,0.112857 -0.33606,-0.07138 -0.47881,0 -0.10095,0.05047 -0.13847,0.188935 -0.23941,0.239407 -0.0714,0.03569 -0.18298,-0.05643 -0.23941,0 -0.0564,0.05643 0,0.159604 0,0.239406 0,0.399012 0,0.798023 0,1.197034 z"
       style="fill:#935f00;fill-opacity:1;stroke:none" />
    <path
       transform="translate(-315.39539,-100.9159)"
       d="m 400.53105,82.702248 c 0,2.384101 -2.16008,4.316797 -4.82466,4.316797 -2.66458,0 -4.82466,-1.932696 -4.82466,-4.316797 0,-2.384102 2.16008,-4.316798 4.82466,-4.316798 2.66458,0 4.82466,1.932696 4.82466,4.316798 z"
       sodipodi:ry="4.3167973"
       sodipodi:rx="4.8246555"
       sodipodi:cy="82.702248"
       sodipodi:cx="395.70639"
       id="path3778"
       style="fill:#003e76;fill-opacity:1;stroke:none"
       sodipodi:type="arc" />
    <path
       transform="translate(-315.14146,-100.66197)"
       d="m 394.60604,81.220993 c 0,0.72458 -0.56844,1.311968 -1.26964,1.311968 -0.70121,0 -1.26965,-0.587388 -1.26965,-1.311968 0,-0.72458 0.56844,-1.311968 1.26965,-1.311968 0.7012,0 1.26964,0.587388 1.26964,1.311968 z"
       sodipodi:ry="1.3119677"
       sodipodi:rx="1.2696462"
       sodipodi:cy="81.220993"
       sodipodi:cx="393.3364"
       id="path3780"
       style="fill:#ffffff;fill-opacity:0.8699187;stroke:none"
       sodipodi:type="arc" />
    <path
       transform="translate(-341.5629,-100.76888)"
       d="m 400.53105,82.702248 c 0,2.384101 -2.16008,4.316797 -4.82466,4.316797 -2.66458,0 -4.82466,-1.932696 -4.82466,-4.316797 0,-2.384102 2.16008,-4.316798 4.82466,-4.316798 2.66458,0 4.82466,1.932696 4.82466,4.316798 z"
       sodipodi:ry="4.3167973"
       sodipodi:rx="4.8246555"
       sodipodi:cy="82.702248"
       sodipodi:cx="395.70639"
       id="path3778-1"
       style="fill:#003e76;fill-opacity:1;stroke:none"
       sodipodi:type="arc" />
    <path
       d="m 394.60604,81.220993 c 0,0.72458 -0.56844,1.311968 -1.26964,1.311968 -0.70121,0 -1.26965,-0.587388 -1.26965,-1.311968 0,-0.72458 0.56844,-1.311968 1.26965,-1.311968 0.7012,0 1.26964,0.587388 1.26964,1.311968 z"
       sodipodi:ry="1.3119677"
       sodipodi:rx="1.2696462"
       sodipodi:cy="81.220993"
       sodipodi:cx="393.3364"
       id="path3780-8"
       style="fill:#ffffff;fill-opacity:0.8699187;stroke:none"
       sodipodi:type="arc"
       transform="translate(-341.30898,-100.51495)" />
    <path
       transform="translate(-315.14146,-100.66197)"
       d="m 384.12819,86.306145 c 0,0.396662 -0.56272,0.71822 -1.25688,0.71822 -0.69416,0 -1.25689,-0.321558 -1.25689,-0.71822 0,-0.396662 0.56273,-0.718221 1.25689,-0.718221 0.69416,0 1.25688,0.321559 1.25688,0.718221 z"
       sodipodi:ry="0.71822035"
       sodipodi:rx="1.2568856"
       sodipodi:cy="86.306145"
       sodipodi:cx="382.87131"
       id="path3803"
       style="fill:#ad6745;fill-opacity:0.8699187;stroke:none"
       sodipodi:type="arc" />
    <path
       inkscape:connector-curvature="0"
       id="path3805"
       d="m 64.557687,-10.645024 c 0.11971,0.159605 0.23941,0.319209 0.35911,0.478814 0.0399,0 0.084,-0.01784 0.11971,0 0.10094,0.05047 0.13846,0.188935 0.2394,0.239407 0.0357,0.01784 0.0915,-0.02822 0.11971,0 0.0282,0.02821 -0.0282,0.09149 0,0.119703 0.0282,0.02821 0.0915,-0.02821 0.1197,0 0.0282,0.02821 -0.0282,0.09149 0,0.119704 0.0282,0.02821 0.0915,-0.02822 0.1197,0 0.0282,0.02821 -0.0282,0.09149 0,0.119703 0.0564,0.05643 0.18298,-0.05643 0.23941,0 0.0282,0.02821 -0.0282,0.09149 0,0.119703 0.0564,0.05643 0.18298,-0.05643 0.23941,0 0.0282,0.02822 -0.0282,0.09149 0,0.119704 0.0245,0.02447 0.31165,-0.02373 0.35911,0 0.0505,0.02523 0.0692,0.09447 0.1197,0.119703 0.0649,0.03247 0.44606,-0.03275 0.47881,0 0.0282,0.02821 -0.0282,0.09149 0,0.119703 0.0282,0.02822 0.0798,0 0.11971,0 0.0399,0 0.0798,0 0.1197,0 0.27931,0 0.55862,0 0.83793,0 0.0539,0 0.32268,0.01821 0.35911,0 0.0505,-0.02524 0.0692,-0.09447 0.1197,-0.119703 0.0433,-0.02164 0.51526,0 0.59852,0 0.0399,0 0.0915,0.02821 0.1197,0 0.0282,-0.02821 -0.0282,-0.09149 0,-0.119703 0.0328,-0.03275 0.41387,0.03247 0.47881,0 0.0505,-0.02524 0.0692,-0.09447 0.11971,-0.119704 0.031,-0.01547 0.63337,0 0.71822,0 0.0399,0 0.0798,0 0.1197,0 0.0399,0 0.0915,0.02822 0.1197,0 0.0282,-0.02821 -0.0282,-0.09149 0,-0.119703 0.0282,-0.02821 0.0915,0.02821 0.11971,0 0.0282,-0.02821 -0.0282,-0.09149 0,-0.119703 0.0282,-0.02822 0.0915,0.02821 0.1197,0 0.0282,-0.02822 -0.0282,-0.09149 0,-0.119704 0.0564,-0.05643 0.18298,0.05643 0.23941,0 0.0564,-0.05643 -0.0564,-0.182978 0,-0.239407 0.0282,-0.02821 0.0798,0 0.1197,0 0,-0.0399 -0.0178,-0.08401 0,-0.119703 0.0252,-0.05047 0.0692,-0.09447 0.1197,-0.119703 0.0357,-0.01784 0.0798,0 0.11971,0 0.0399,0 0.1197,-0.0399 0.1197,0 0,0.0399 -0.0798,0 -0.1197,0"
       style="fill:none;stroke:#ad6745;stroke-width:1px;stroke-linecap:butt;stroke-linejoin:miter;stroke-opacity:1" />
    <path
       transform="translate(-315.14146,-100.66197)"
       d="m 387.95869,101.38877 c 0,2.18164 -1.50061,3.95021 -3.3517,3.95021 -1.85109,0 -3.35169,-1.76857 -3.35169,-3.95021 0,-2.181641 1.5006,-3.950211 3.35169,-3.950211 1.85109,0 3.3517,1.76857 3.3517,3.950211 z"
       sodipodi:ry="3.9502118"
       sodipodi:rx="3.3516948"
       sodipodi:cy="101.38877"
       sodipodi:cx="384.60699"
       id="path3809"
       style="fill:#cf0400;fill-opacity:0.95934957;stroke:none"
       sodipodi:type="arc" />
    <path
       sodipodi:nodetypes="ccccccc"
       inkscape:connector-curvature="0"
       id="path3813"
       d="m 40.528757,-32.772264 c -1.56884,-8.86426 51.40017,-7.877898 53.49443,-0.338572 8.038183,-3.05848 8.687093,-5.898526 11.511453,-8.80288 -17.640483,-11.737169 -35.347503,-18.689845 -41.644393,-19.467908 -8.74645,1.381487 -21.72506,11.913549 -29.79437,17.097901 -1.87551,2.845568 -4.9069,5.542324 -5.07858,7.110019 3.10358,5.029818 8.40788,4.438007 11.51146,4.40144 z"
       style="fill:#000000;fill-opacity:0.54471549;stroke:none" />
    <path
       inkscape:connector-curvature="0"
       id="path3815"
       d="m 104.18035,-36.496559 c -0.16928,0.225715 -0.28214,0.846431 -0.50786,0.677144 -0.22571,-0.169286 0.70737,-0.87665 0.50786,-0.677144 -0.25549,0.255492 -0.42165,0.590939 -0.67714,0.846431 -0.0399,0.0399 -0.12939,-0.0399 -0.16929,0 -0.0399,0.0399 0.0399,0.129385 0,0.169286 -0.0399,0.0399 -0.12938,-0.0399 -0.16928,0 -0.0399,0.0399 0.0399,0.129385 0,0.169286 -0.0399,0.0399 -0.12939,-0.0399 -0.16929,0 -0.0399,0.0399 0,0.112857 0,0.169286 -0.0564,0 -0.12939,-0.0399 -0.16929,0 -0.0399,0.0399 0.0399,0.129385 0,0.169286 -0.0399,0.0399 -0.12938,-0.0399 -0.16928,0 -0.0399,0.0399 0.0399,0.129385 0,0.169286 -0.0399,0.0399 -0.12939,-0.0399 -0.16929,0 -0.0399,0.0399 0.0252,0.118815 0,0.169287 -0.0357,0.07138 -0.1336,0.09791 -0.16929,0.169286 -0.0505,0.100942 0.0798,0.25877 0,0.338572 -0.0399,0.0399 -0.12938,-0.0399 -0.16928,0 -0.0399,0.0399 0.0399,0.129385 0,0.169286 -0.0399,0.0399 -0.12939,-0.0399 -0.16929,0 -0.0399,0.0399 0.0399,0.129385 0,0.169286 -0.0399,0.0399 -0.12938,-0.0399 -0.16928,0 -0.0399,0.0399 0.0399,0.129385 0,0.169286 -0.0399,0.0399 -0.12939,-0.0399 -0.16929,0 -0.0399,0.0399 0.0252,0.118815 0,0.169287 -0.0357,0.07138 -0.1336,0.09791 -0.16929,0.169286 -0.0252,0.05047 0,0.112857 0,0.169286 0,0.05643 0,0.112857 0,0.169286 0,0.112858 0,0.225715 0,0.338572 0,0.05643 0,0.225715 0,0.169287 0,-0.112858 0,-0.45143 0,-0.338573 0,0.169286 0,0.338573 0,0.507859 0,0.05643 -0.0252,0.118814 0,0.169286 0.56146,0.561451 -0.0798,-0.159605 0.16929,0.338572 0.0357,0.07138 0.1336,0.09791 0.16929,0.169286 0.0252,0.05047 0,0.112858 0,0.169287 0,0.05643 0,0.112857 0,0.169286 0,0.282143 0,0.564287 0,0.84643 0,0.05643 0,0.112858 0,0.169287 0,0.05643 -0.0252,0.118814 0,0.169286 0.0357,0.07138 0.13359,0.09791 0.16928,0.169286 0.0677,0.135429 -0.0677,0.372429 0,0.507858 0.20919,0.418375 0.16929,-0.05843 0.16929,0.338573 0,0.338572 0,0.677144 0,1.015717 0,0.05643 0,0.112857 0,0.169286 0,0.05643 0.0252,0.118815 0,0.169286 -0.0357,0.07138 -0.1336,0.09791 -0.16929,0.169286 -0.0258,0.05152 0,0.431619 0,0.507859 0,0.338572 0,0.677144 0,1.015717 0,0.04106 0.005,0.502414 0,0.507858 -0.0399,0.0399 -0.12938,-0.0399 -0.16928,0 -0.0399,0.0399 0,0.112857 0,0.169286 0,0.282144 0,0.564287 0,0.846431 0,0.04106 0.005,0.502414 0,0.507858 -0.0399,0.0399 -0.12939,-0.0399 -0.16929,0 -0.0399,0.0399 0,0.112858 0,0.169287 0,0.05643 -0.0399,0.129385 0,0.169286 0.0399,0.0399 0.12939,-0.0399 0.16929,0 0.0399,0.0399 -0.0399,0.129385 0,0.169286 0.0399,0.0399 0.11285,0 0.16928,0 0,0.05643 -0.0399,0.129385 0,0.169286 0.0399,0.0399 0.11882,-0.02524 0.16929,0 0.0714,0.03569 0.0979,0.133598 0.16928,0.169286 0.0612,0.03061 0.72869,0 0.84644,0 0.0885,0 0.63263,0.02226 0.67714,0 0.0714,-0.03569 0.0979,-0.133597 0.16929,-0.169286 0.10094,-0.05047 0.23763,0.05047 0.33857,0 0.0714,-0.03569 0.0979,-0.133597 0.16928,-0.169286 0.23351,-0.116753 0.15143,0.205015 0.33858,-0.169286 0.0459,-0.09184 -0.0463,-0.630824 0,-0.677145 0.0399,-0.0399 0.12938,0.0399 0.16928,0 0.0399,-0.0399 -0.0399,-0.129385 0,-0.169286 0.0399,-0.0399 0.12939,0.0399 0.16929,0 0.0399,-0.0399 -0.0399,-0.129385 0,-0.169286 0.0399,-0.0399 0.12938,0.0399 0.16929,0 0.0399,-0.0399 -0.0399,-0.129385 0,-0.169286 0.0399,-0.0399 0.12938,0.0399 0.16928,0 0.0399,-0.0399 -0.0399,-0.129385 0,-0.169287 0.0399,-0.0399 0.11286,0 0.16929,0 0.0564,0 0.11286,0 0.16928,0 0.0622,0 0.67034,-0.0068 0.67715,0 0.0399,0.0399 0,0.112858 0,0.169287 0,0.05643 0.0564,0.169286 0,0.169286 -0.0564,0 -0.0564,-0.169286 0,-0.169286 0.20919,0 0.16928,0.237401 0.16928,0.338572 0,0.05643 0,0.112857 0,0.169286 0,0.05643 -0.0399,0.129385 0,0.169286 0.0399,0.0399 0.11286,0 0.16929,0 0.0564,0 0.11286,0 0.16929,0 0.45143,0 0.90286,0 1.35429,0 0.0564,0 0.12938,0.0399 0.16928,0 0.0399,-0.0399 -0.0399,-0.129385 0,-0.169286 0.0399,-0.0399 0.12939,0.0399 0.16929,0 0.0846,-0.08464 -0.0846,-0.423215 0,-0.507858 0.0399,-0.0399 0.12938,0.0399 0.16928,0 0.0847,-0.08464 -0.0846,-0.423216 0,-0.507859 0.0399,-0.0399 0.14406,0.05047 0.16929,0 0.0505,-0.100943 0,-0.225715 0,-0.338572 0,-0.677145 0,-1.354289 0,-2.031434 0,-0.05643 0,-0.112857 0,-0.169286 0,-0.05643 0.0399,-0.129385 0,-0.169286 -0.0399,-0.0399 -0.12938,0.0399 -0.16929,0 -0.0524,-0.05242 0.0524,-0.794012 0,-0.846431 -0.0399,-0.0399 -0.12938,0.0399 -0.16928,0 -0.0399,-0.0399 0,-0.112858 0,-0.169286 0,-0.282144 0,-0.564287 0,-0.846431 0,-0.07624 0.0258,-0.456339 0,-0.507859 -0.0357,-0.07138 -0.1336,-0.09791 -0.16929,-0.169286 -0.0222,-0.04451 0,-0.588621 0,-0.677144 0,-0.45143 0,-0.90286 0,-1.35429 0,-0.07624 0.0258,-0.456339 0,-0.507858 -0.0357,-0.07138 -0.13359,-0.09791 -0.16928,-0.169286 -0.0459,-0.09184 0.0463,-0.630824 0,-0.677145 -0.0399,-0.0399 -0.12939,0.0399 -0.16929,0 -0.0399,-0.0399 0.0252,-0.118815 0,-0.169286 -0.0357,-0.07138 -0.1336,-0.09791 -0.16929,-0.169286 -0.0252,-0.05047 0.0399,-0.129385 0,-0.169286 -0.0798,-0.0798 -0.25877,0.0798 -0.33857,0 -0.0399,-0.0399 0.0399,-0.129385 0,-0.169286 -0.0399,-0.0399 -0.12938,0.0399 -0.16928,0 -0.0399,-0.0399 0.0399,-0.129386 0,-0.169287 -0.0399,-0.0399 -0.12939,0.0399 -0.16929,0 -0.0399,-0.0399 0.0399,-0.129385 0,-0.169286 -0.0399,-0.0399 -0.12939,0.0399 -0.16929,0 -0.0399,-0.0399 0.0399,-0.129385 0,-0.169286 -0.0399,-0.0399 -0.12938,0.0399 -0.16928,0 -0.0399,-0.0399 0.0399,-0.129385 0,-0.169286 -0.0399,-0.0399 -0.12939,0.0399 -0.16929,0 -0.0399,-0.0399 0.0399,-0.129385 0,-0.169286 -0.0564,-0.0564 -0.28217,0.0564 -0.33857,0 -0.0399,-0.0399 0.0399,-0.129385 0,-0.169286 -0.0798,-0.0798 -0.23763,0.05047 -0.33857,0 -0.0714,-0.03569 -0.0979,-0.133598 -0.16929,-0.169287 -0.0505,-0.02523 -0.12938,0.0399 -0.16929,0 -0.0399,-0.0399 0.0399,-0.129385 0,-0.169286 -0.0798,-0.0798 -0.25877,0.0798 -0.33857,0 -0.0399,-0.0399 0.0399,-0.129385 0,-0.169286 -0.0564,-0.0564 -0.28217,0.0564 -0.33857,0 -0.0399,-0.0399 0.0399,-0.129385 0,-0.169286 -0.0399,-0.0399 -0.12939,0.0399 -0.16929,0 -0.22571,-0.225715 0.28215,-0.169286 -0.16928,-0.169286"
       style="fill:#edc700;fill-opacity:1;stroke:none" />
    <path
       inkscape:connector-curvature="0"
       id="path3817"
       d="m 103.67249,-41.236572 2.03144,5.417157"
       style="fill:none;stroke:#000000;stroke-width:1px;stroke-linecap:butt;stroke-linejoin:miter;stroke-opacity:1" />
    <path
       sodipodi:nodetypes="cccccc"
       inkscape:connector-curvature="0"
       id="path3819"
       d="m 31.147887,-45.596936 c 0.55329,0.947807 3.21065,0.492906 1.35429,3.04715 l 5.92502,11.003601 -2.70858,4.40144 c -7.01443,1.603031 -10.90062,-0.964929 -13.88146,-4.740013 -1.54952,-10.169208 4.8383,-11.735353 9.31073,-13.712178 z"
       style="fill:#f7bd7a;fill-opacity:1;stroke:none" />
    <path
       inkscape:connector-curvature="0"
       id="path3821"
       d="m 55.002717,28.170748 0.16929,8.29503 -4.3168,2.37 12.01932,0.33858 0.16929,-12.69647 -8.46431,-0.25393 z"
       style="fill:#000000;fill-opacity:1;stroke:none" />
    <path
       inkscape:connector-curvature="0"
       id="path3821-7"
       d="m 83.273517,27.874498 -0.16929,8.29503 4.3168,2.37 -12.01932,0.33858 -0.16929,-12.69647 8.46431,-0.25393 z"
       style="fill:#000000;fill-opacity:1;stroke:none" />
    <path
       sodipodi:nodetypes="ccc"
       inkscape:connector-curvature="0"
       id="path3841"
       d="m 20.045127,-30.571544 c 4.86245,13.081738 6.51975,32.958102 21.66863,36.565812 -14.17973,-0.0141 -21.93067,-11.278607 -21.66863,-36.565812 z"
       style="fill:#000017;fill-opacity:0.45934963;stroke:none" />
    <path
       sodipodi:nodetypes="ccccc"
       inkscape:connector-curvature="0"
       id="path3843"
       d="m 41.883047,6.163548 c 7.74113,8.86007 17.95996,28.01328 54.84871,11.0036 -1.80572,2.95513 -3.61144,5.52584 -5.41716,9.31074 -13.07994,2.07694 -28.06754,1.29237 -43.84511,-0.67714 -3.54043,-5.1049 -4.57622,-12.36008 -5.58644,-19.6372 z"
       style="fill:#000017;fill-opacity:0.45934963;stroke:none" />
    <path
       sodipodi:nodetypes="ccc"
       inkscape:connector-curvature="0"
       id="path3845"
       d="m 102.48749,-7.040768 c 8.75447,4.157268 4.66759,13.788216 -6.940733,26.070066 -1.22508,-9.14264 13.212043,-12.41568 6.940733,-26.070066 z"
       style="fill:#000017;fill-opacity:0.45934963;stroke:none" />
    <path
       sodipodi:nodetypes="ccc"
       inkscape:connector-curvature="0"
       id="path3849"
       d="m 38.835897,-33.110836 c 11.89985,-3.796757 16.07321,-14.078408 55.69514,-0.846431 -22.27742,-16.717997 -41.15696,-12.566803 -55.69514,0.846431 z"
       style="fill:#000000;fill-opacity:0.58943087;stroke:none" />
  </g>
  <text
     xml:space="preserve"
     style="font-size:79.74411011px;font-style:normal;font-variant:normal;font-weight:bold;font-stretch:normal;text-align:start;line-height:125%;letter-spacing:0px;word-spacing:0px;writing-mode:lr-tb;text-anchor:start;fill:#ffffff;fill-opacity:1;stroke:none;font-family:Purisa;-inkscape-font-specification:Purisa Bold"
     x="-75.227898"
     y="431.02924"
     id="text3027"
     sodipodi:linespacing="125%"><tspan
       sodipodi:role="line"
       id="tspan3029"
       x="-75.227898"
       y="431.02924">STUDENT</tspan></text>
</svg>
